<?xml version="1.0" encoding="UTF-8"?>
<svg id="Layer_2" data-name="Layer 2" xmlns="http://www.w3.org/2000/svg" viewBox="0 0 702.06 702.06">
  <defs>
    <style>
      .cls-1 {
        fill: #fff;
        stroke: #fff;
        stroke-width: 16px;
      }

      .cls-2 {
        fill: #234c41;
      }
    </style>
  </defs>
  <g id="Layer_1-2" data-name="Layer 1">
    <g id="Logo">
      <g>
        <circle class="cls-1" cx="351.03" cy="351.03" r="343.03"/>
        <path class="cls-2" d="M694.06,351.03c0,189.45-153.58,343.03-343.03,343.03S8,540.49,8,351.03,161.58,8,351.03,8s343.03,153.58,343.03,343.03ZM355.66,142.73l-6.25,13.26c-.42.89.29,3.09,1.1,3.5.88.45,2.79.21,3.48-.66l16.64-21.06c14.74-18.66,35.09-39.72,55.84-51.45,5.58-3.16,11.36-5.37,17.67-5.46,14.5-.19,13.77,21.68,12.74,31.46-1.2,11.43-3.5,22.26-5.71,33.52-.3,1.52.11,3.16,1.33,3.69,1.49.65,2.69-.27,3.56-1.61,8.23-12.62,23.02-29.23,37.47-34.44,7.29-2.63,11.88.97,11.88-1.96,0-.53-.5-1.83-1.08-2.13-8.25-4.23-20,2.43-26.76,7.8-7.5,5.97-13.82,12.92-20.09,20.37,2.88-15.86,7.22-36.16,1.75-51.03-2.52-6.64-8.28-10.45-15.53-10.23-7.78.24-15.04,3.03-21.75,7.09-23.23,14.05-42.86,36.04-59.86,57.26,4.8-12.91,11.22-27.43,9.51-41.09-.97-3.64-3.58-5.66-7.56-4.69-10.39,2.53-30.62,30.04-36.84,39.94,3.71-14.78,8.07-32.05,6.76-46.84-.67-7.63-2.14-14.82-5.68-21.59-5.7-10.9-16.15-17.58-28.66-18.23-21.09-1.1-39.93,15.04-54.57,28.43-3.71,3.39-6.89,6.65-10.36,10.35-12.14,12.99-23.24,26.4-32.78,41.75,1.8-7.01,3.58-13.35,2.09-20.14-1.33-6.04-5.95-9.53-12.2-8.88-3.81.4-7.71,1.61-11.18,3.55-16.87,9.4-33.59,26.81-44.67,42.39-.62.87-.03,3.2.76,3.49s2.38-.27,3.05-1.18c5.92-8.04,12.15-15.16,19.25-22.18,7.86-7.76,21.8-19.95,32.81-21.67,3.94-.61,6.91,1.66,7.82,5.5,1.24,5.23.15,10.69-1.64,15.89-2.47,7.21-5.28,14.02-8.43,20.93-.61,1.35-.98,2.81.27,3.7.77.56,2.82-.04,3.43-.96l14-21.07c8.77-13.2,18.48-25.46,29.65-36.67l9.55-9.59c11.79-11.84,30.74-27.18,47.81-28.93,13.41-1.38,25.12,5.39,30.69,17.46,6.83,14.81,5.01,34.17,1.1,49.69l-4.83,19.13c-.63,2.51-1.05,5.75-.35,8.19.2.71,2.4,1.28,3.03.9s1.68-1.25,2.18-2.12c7.1-12.38,14.93-23.73,24.51-34.3,4.18-4.61,8.07-8.97,13.53-12.15,4.88-2.85,3.14,8.75,2.71,10.96-2.21,11.2-6.23,21.57-11.2,32.12ZM44.87,311.5l-.5,6.89c-.46,6.24-.22,21.9.44,28.3l1.82,17.81c2.01,19.61,4.94,38.71,11.07,57.78,5.52.35,11.26.59,16.65-1.32,7.99-2.82,14.84-7.45,20.88-13.32-14.6-28.67-24.38-59.11-27.23-91.83l16.23-1.49c16.1-2.18,31.59-6.84,47.12-12.34,37.79-14.87,70-37.78,94.16-70.49,25.68-34.76,42.79-78.13,49.9-120.97-4.02,9.03-7.66,17.78-12.45,26.41-5.63,9.78-11.96,18.51-19.36,27.05-10.83,16.74-26.82,34.09-44.94,42.81-12.43,5.98-24.5,7.12-35.42-2.61-5.13-4.57-5.12-7.27-9.35-10.23-3.93,10.07-10.36,18.05-18.17,25.68-8.74,8.54-19.72,14.16-32.11,15.41l-9.13-1.34c-10.05-1.48-17.86-7.48-22.21-16.77-6.03,13.52-12.62,26.8-17.16,41.26s-9.11,37.8-10.25,53.3ZM637.2,347.46c-5.14-8.74-20.64-15.65-30.27-17.9-1.13-7.28-2.58-14.13-4.46-21.28,8.86-3.27,17.4-5.8,26.2-8.36.98-.28,2.35-2.21,2.14-3.09-.18-.78-1.18-2.17-2.04-2.7-8.78-5.38-24.22-9.55-34.37-7.37-3.25-8.53-7.42-15.89-12.2-23.42l14.41-4.79c3.49-1.16,12.76-3.92,11.65-8.43-.26-1.06-1.55-2.99-2.79-3.5-7.78-3.25-15.87-4.15-24.33-5.09-4.79.04-9.44.64-14.35,1.63-4.25-5.59-9.05-10.63-14.78-15.42,7.08-3.06,14.98-2.7,21.03,2.24,1.24,1.02,2.64,1.79,4.27,2.39-.61-10.36,6.39-17.75,16.34-18.36,10.78-.66,19.18,2.27,28.26,7.83.91-1.64.97-4.08-.36-5.51-5.16-5.57-10.82-10.45-17.72-13.91-20.45-10.23-40.11-11.56-62.54-7.4,9.06-5.03,18.68-8.78,28.97-10.79,11.95-2.33,16.26,2.25,25.87,4.56,3.03.73,7.48.76,10.32-.5l13-5.8c1.84-.82,3.66-2.37,5.4-3.67-11.48.45-22.36,1.89-31.92-3.73-5.56-3.27-10.43-7.39-16.21-10.32-3.56-1.8-18.85-3.4-21.06-2.74l-22.29,6.58c-8.5,2.51-16.36,5.4-24.82,8.61l6.48-9.47c.66-.96,1.04-2.19,1.37-3.74-10.68.66-17.19,7.17-26.95,12.08,1-3.89,5.02-8.04,4.84-12.57-6.43,1.39-12.47,2.99-18.16,6.25-4.39,2.51-8.47,5.35-13.4,6.65-7.74,2.04-15.26,4.22-23.37,3.92-7.35-.26-18.97-4.98-25.22-8.54-2.16-1.23-.61-5.4.32-6.97l3.94-6.62c-2.37-3.6-12.15,1.53-14.99,3.2-9.7,5.73-18.15,12.73-26.04,20.72-3.61,3.65-11.04,11.08-12.74,15.88l4.98-.69c7.46-1.03,14.34.53,20.6,4.49,5.35,3.38,9.29,7.78,11.08,14.31,4.03-2.3,7.89-2.1,12.03-1.51,18.19,2.59,25.33,14.23,32.2,15.02,5.84.67,12.01,1.05,17.8.15l11.8-1.83c2.29-.36,4.99.26,7.19,1.19,1.54.65,2.22,3.01,1.72,4.33-.55,1.44-2.5,2.24-4.19,2.13l-7.7-.5c-3.03-.2-6.05-.29-9.07-.27s-17.54,4.29-27.53,4.74c-12.32.55-24.37.33-36.61.1-7.94-.15-19.91-4.22-25.83-9.36,2.1,8.95,7.17,15.96,14.01,21.51,3.25,2.64,6.65,5.04,10.83,6.13l23.75,6.21c17.46,4.57,34.66,8.3,52.59,10.68,7.5,1,14.43,1.59,21.89.22,8.05,3.8,14.49,9.23,20.57,15.61,7.05,7.39,12.21,15.89,15.88,25.52,6.26,16.42,9.6,35.2,7.93,52.69-1.02,10.69-5.68,36.87-12.18,45.8,2.52,1.86,5.96,1.97,9.31,1.53,5.48-.72,9.61-3.41,13.46-7.45l3.44-3.61c3.58-3.76,5.74-8.41,8.51-12.81s5.67-8.59,8.78-12.96c1.43-2.01,3.98-4.14,6.19-5.13,2.86-1.29,6.37.51,8.21,2.82,2.47,3.1,4.13,6.71,5.88,10.33,3.41,7.08,7,13.56,12.28,19.55l1.63-11.98c7.87,2.24,14.72,5.11,21.66,8.82,1.14.61,2.77.62,3.75.13,4.88-2.42-1-10.38-3.43-13.14-5.54-6.3-12.2-11.04-19.58-15.26l.32-5.42.21-16.36c8.14-1.46,15.02-1.06,23.47-1,1.4,0,3.01-.53,3.83-1.32.72-.7,1.44-3.04.91-3.94ZM340.61,236.1c10.01-8.56,15.59-12.58,28.73-12.58,4.85,0,9.5.05,14.43.42l15.37,1.17c-4.56-1.52-8.73-2.87-13.26-4.79-18.9-7.98-32.79-11.75-53.31-6.18-7.55,3.68-14.94,8.32-19.39,16.43,11.99-7.96,21.43-10.72,36.42-10.32-8.3,6.07-15.49,14.66-16.88,24.88,2.67-3.24,4.76-6.35,7.89-9.03ZM243.93,401.19c18.8-18.59,38.5-35.59,66.25-37.06,27.25-1.45,45.35,17.87,59.92,38.69,5.74-6.65,10.19-13.31,14.74-20.22,1.07-1.64,2.36-3.01,3.68-4.56,2.18-2.55,4.89-5.9,8.5-6.53,3.4-.59,7.41,1.64,9.53,4.18,7.81,9.34,11.68,17.88,20.98,27.72,3.95,4.18,17.24,14.5,22.28,7.1,5.96-8.74,13.3-21.7,11.03-32.44-.17-.79-1.18-2.03-1.84-2.31-2.8-1.22-10.01,6.39-12.71,8.86l-5.22,4.78-13.65-18.74c1.99-6.13,3.85-12.22,4.48-18.87.21-2.22-.54-18.04-4.91-17.65-1.45.13-3.35,1.36-4.15,2.48l-11.28,15.66c-4.17-5.07-8.75-9.36-13.1-14.29l-3.99-4.51c-.63-.72.09-2.94.12-3.86.14-4.5.35-9.35.09-13.99-.24-4.37-2.68-18.18-8.76-18.46-1.52.78-3.16,2.96-3.87,4.59l-4.45,10.32c-.69,1.59-1.81,3.03-3.1,4.15-8.72-7.38-14.76-9.38-25.53-12.7-1.67-5.92-3.18-11.84-6.3-17-2.05-3.38-8.82-13.78-13.14-10.73-.83.59-1.57,2.56-1.44,3.73l1.02,9.02c.23,2.05.67,11.36-.5,12.54-.31.31-1.48.42-1.99.34-7.67-1.29-15.18-1.47-22.68-.45-1.32-3.48-2.92-6.42-4.86-9.21-3.9-5.61-7.85-10.95-14.38-13.87-.75-.34-2.58-.59-3.26-.26-2.29,1.12-2.33,4.27-1.63,6.77l5.56,19.94c-6.23,1.64-11.72,3.48-17.79,5.73-1.37.51-2.83,1.64-4.09,2.27l-7.76,3.9c-8.17-7.49-16.44-13.81-28.4-12.52-1.32.14-2.76,2.8-1.89,3.97,4.76,6.39,8.71,12.61,12.77,19.63l-9.05,6.5c-1.49,1.07-3.11,2.43-4.49,3.64l-10.16,8.92-1.94,1.88c-1.44,1.4-2.69,2.62-3.96,4.39-5.78-4.57-12.88-7.56-20.42-8.35-3.29-.35-10.17-.96-11.65,2.52-2.06,4.83,6.26,10.07,10.32,13.6,2.77,2.41,5.28,4.84,7.9,7.73l-10.18,14.94c-3.23,4.74-6.07,9.47-8.48,14.99-4.78-1.33-24.07-8.48-26.48-3.9-1.4,2.66,3.97,7.65,6.14,9.91,4.53,4.72,10.25,8.77,16.9,8.38,7.46-.43,13.26-3.85,18.09-9.28,7.4-8.31,13.23-17.43,19.74-26.46,1.67-2.32,5.29-4.94,8.05-4.3,4.95,1.15,7.93,5.58,10.62,9.44,5.07,7.26,8.51,12.65,14.76,19.28ZM565.27,432.4c1.42-1.13,2.53-2.47,3.5-3.84,2.13-3.01,4.95-5.7,6.73-8.86l2.56-4.57,1.81-3.22,4.07,6.13c5.57,8.38,12.53,15.26,21.05,20.79.65.42,2.23.75,2.9,1.06,4.31,2,8.56,4.3,13.24,4.61,6.67.44,12.77.25,19.04-2.26l.81-.76c-17.79-3.91-24.28-6.24-37.75-17.58-7.25-6.1-13.59-16.57-17.48-25.21-1.04-2.32-2.34-4.84-3.88-6.77-1.2-1.51-3.98.16-4.72,1.42l-9.34,15.86c-.85,1.45-2.1,3.06-3.12,4.5-3.37,4.78-8.15,8.14-12.87,11.62-4.27,3.15-14.8,4.97-20.15,3.71l-6.03-1.43c-4.49-1.06-8.13-4.32-11.91-6.87-2.81-1.89-4.9-4.48-7.29-6.89-2.2-2.22-3.92-4.89-5.86-7.39-1.83-2.35-3.12-4.82-4.51-7.51-.8-1.53-1.87-3.14-2.62-4.83-.99-2.25-3.18-4.37-5.88-2.91-2.16,1.16-3.39,3.98-4.25,6.36-1.31,3.61-3.1,6.56-4.97,9.8-2.25,3.91-5.08,7.2-8.16,10.42-5.05,5.26-9.46,7.8-16.4,9.93-1.23.38-2.6.76-3.91.8l-6.1.21c-3.8.13-7.5-1.96-10.97-3.06-2.24-.71-4.57-1.64-6.36-3.14l-7.58-6.3c-1.71-1.42-3.18-3.81-4.79-5.52-2.22-2.36-3.76-4.85-5.41-7.65-.91-1.53-2-3.06-2.84-4.74-1.24-2.49-2.45-5.15-4.47-6.88s-5.03-1.33-6.38.79c-1.89,2.96-3.86,5.89-5.57,8.95-4.86,8.72-9.75,15.71-18.34,20.91-7.36,4.45-11.57,5.16-20.19,4.79-5.27-.23-9.72-3.33-14.33-5.51-1.73-.82-3.3-1.61-4.75-2.93-2.73-2.48-5.71-5.01-7.88-7.93l-4.45-5.97c-3.6-4.84-5.39-8.55-8.2-13.69-1.32-2.41-6.42-2.88-7.53-.53l-4.55,9.7c-1.34,2.84-3.09,5.43-4.83,8.19-2.65,4.21-3.22,4.56-6.7,8.01-8.37,8.31-16.88,11.72-28.76,10.31-6.9-.82-12.43-4.85-17.99-8.61-2.72-1.84-4.48-3.63-6.56-6.25-2.32-2.93-4.7-5.8-6.93-8.92-4-5.6-5.58-11.68-9.28-12.84-1.14-.36-2.49.67-3.3,1.95-3.31,5.29-6.57,10.41-10.55,15.19l-4.42,5.31c-7.54,9.06-20.09,15.39-31.68,12.77l-3.89-.88c-9.89-2.24-20.19-12.96-26.08-21.03-1.54-2.12-2.98-4.4-4.28-6.59-1.21-2.03-4.32-12.08-9.3-8.87-2.16,1.39-2.94,3.24-3.93,5.42l-3.9,8.54c-1.14,2.5-3.17,4.69-4.41,6.88-.75,1.32-1.37,2.59-2.54,3.74l-5.25,5.14c-1.6,1.56-3.37,2.86-5.04,4.26-10.46,8.73-24.46,14.73-38.59,13.92,13.74,9.44,33.48,8.18,45.89-2.26l4.2-3.53c2.49-2.1,8.8-9.95,10.09-12.25l5.54-9.96c6,9.67,13.69,19.97,22.83,25.41,4.89,2.91,9.87,5.64,15.44,7.03,1.43.36,3.39.35,4.96.62,2.46.43,4.9.26,7.37,0,7.76-.8,13.38-3.34,19.8-7.64,2.07-1.38,3.99-2.88,5.63-4.68l3.67-4.04c2.03-2.23,3.82-4.53,5.42-7.07l4.59-7.27c.35-4.7,2.47,3.41,6.34,7.74,2.08,2.33,3.56,4.86,5.75,6.82,2.83,2.54,5.23,5.47,8.23,7.55,3.34,2.33,6.51,5,10.09,6.22s7.37,2.88,11.27,3.43c8.6,1.2,16.24-.24,23.94-4.06,1.52-.76,3.74-1.99,4.99-3.02l4.24-3.53c1.95-1.62,4.11-3.65,5.63-5.64l3.36-4.39c1.21-1.58,2.78-3.58,3.73-5.35l3.72-6.9c7.29,12.77,19.64,26.24,34.08,31.16,9.02,3.07,19.17,3.13,27.62-.78,6.62-3.07,11.59-6.15,16.34-11.63l3.78-4.37c4.3-4.96,5.09-8.46,9.06-13.63,7.21,13.47,22.78,29.51,36.56,32.75,3.11.73,6.59,1.83,9.64,1.68l5.64-.27c7.17-.35,18.1-5.7,23.64-11.25l3.27-3.27c3.38-3.38,10.28-12.83,11.98-17.81l5.57,7.98,6.23,8.01c.98,1.25,3.01,2.59,4.16,3.91,2.16,2.49,4.73,3.94,7.52,5.61,4.82,2.88,9.51,6.01,15.24,6.86l4.55.68c8.05,1.2,20.13-1.99,26.37-6.96l6.39-5.1ZM423.19,482.93l14.15,44.68,26.61,84.41c.98,3.12,1.96,5.87,3.72,8.55,1.21,1.85,5.84.99,7.06-1.05,7.77-13.01,22.13-50.08,26.8-65.03l7.66-24.52c5.35,12.4,10.09,38.7,9.19,50.59-.34,4.5-1.91,16.86,2.5,18.68.99.41,3.33.38,4.53-.37,17.93-11.25,33.86-24.84,48.53-40.27,15.34-16.14,27.93-34.13,38.39-53.77,3.07-5.77,13.6-25.72,8.47-30.64-1-.96-3.54-2.07-5.34-1.74l-27.25,5.01c-5.42,1-9.74,5.01-11.08,10.17l-4.39,16.9c-4.08,15.69-21.95,52.06-33.7,64.66-5.1-15.76-10.93-30.29-18.94-44.22-3.16-5.5-8.24-13.12-14.78-10.28-1.47.64-2.73,2.55-3.43,4.57-2.62,9.08-4.86,17.81-8.2,26.71-6.66,17.73-14,34.67-22.61,51.71-7.32-33.3-11.56-66.23-14-99.62-.29-4-.68-7.47-1.18-11.37.1-2.86-1.29-5.18-3.15-7.21-2.2-2.4-4.66-3.06-7.89-3.25l-7.61-.45c-4.41-.26-16.06.75-14.04,7.12ZM352.86,614.47c-.93-4.2-4.71-6.82-8.93-6.13-19.89,3.23-29.87,9.21-54.03,11.31-5.01.44-9.91-.5-14.77-1.75-7.45-30.23-13.7-60.08-18.33-90.74l-5.65-37.42-1.86-9.06c-.39-1.88-.76-4.19-3.09-4.68-5.99-1.27-21.33-3.53-26.83-2.58-3.03.52-6.01,4.07-4.89,7.12,1.85,4.99,3.73,9.6,5.82,14.4,3.61,8.28,6.38,16.43,9.41,25.03,5.89,16.73,11.19,33.06,16.29,50.1l13.29,44.44c1.72,5.74,2.92,11.03,5.35,16.61,1.1,2.53,4.01,6.21,6.97,7,20.08,5.39,40.21,8.15,60.9,9.53,5.85.39,11.69-1.87,14.23-7.18,3.25-6.78,7.82-18.4,6.12-26.03ZM169.36,546.52l22.44-5.38c2.28-.55,4.06-1.74,4.36-4.05.21-1.65-1.01-4.12-2.95-4.65-1.49-.41-3.53-.92-5.07-.92l-31.66.13-13.1.54c-3.84.16-7.45.44-11.18.34-6.42-9.14-11.6-17.85-16.77-28.09,17.78-2.99,32.37-4.08,50.63-3.36l20.96,2.22c4.81.51,6.15-6.89,4.96-10.29-1.73-4.95-2.93-9.17-4.26-13.99-.81-2.95-2.55-4.85-5.86-5.1-4.53-.34-9.06-.25-13.76.02-22.32,1.26-44.18,4.19-65.73,10.43-4.88,1.41-18.95,5.46-15.46,12.82,12.77,26.91,31.88,51.54,53.91,71.85,28.11,25.91,61.12,45.47,96.98,58.78,2.46.91,5.86,1.39,6.89-1.68.54-1.61-1.97-3.71-3.52-4.36-7.28-3.09-13.78-6.72-20.8-10.27-8.01-4.04-15.32-8.22-22.76-13.27-9.66-6.56-18.68-13.18-27.22-21.22-5.69-5.35-11.3-10.48-16.37-16.37l-7.37-8.56,22.71-5.59ZM371.19,487.2c12.72,6.54,19.13,22.38,24.03,34.63,3.61,9.03,5.59,17.77,6.31,27.55l.59,7.98c1.94,26.14-3.29,51.06-13.02,75.31-1.35,3.37-.44,8.43,2.07,10.84,6.06,3.87,24.56-1.46,32.3-2.66,3.05-2.73,6.33-6.32,6.5-10.72.83-20.99-.43-30.28-4.72-50.73-4.82-22.95-12.2-51.81-23.06-72.41-7.12-13.52-21.14-33.21-38.51-31.51-14.48,1.42-25.75,19.37-31.74,31.36-13.12,26.22-22.11,54.07-27.77,82.84-.46,2.35.7,6.44,2.9,6.84,3.25.6,6.34.37,9.61.42,4.02-1.48,8.82-3.29,10.96-7.33l3.44-30.93c16.25-4.46,32.49-7.81,49.4-9.19,2.69-.22,4.93-.62,5.78-3.35.48-1.55.15-4.91-2.28-5.51-3.85-.96-8-.87-12.03-1.2-7-.58-13.82-.33-20.85.11l-8.72.55-8,.61c4.38-17.06,12.1-37.73,22.75-51.04,3.61-4.52,8.81-5.15,14.05-2.46Z"/>
        <path class="cls-2" d="M496.07,197.73c6.32,2.82,13.04,15.62,8.55,19.76-5.08,4.67-35.55-.54-43.53-1.94-1.77-.31-4.21-1.87-4.63-3.52-.71-2.8.67-5.69,2.49-7.71,5.68-6.28,15.15-8.44,23.74-9.72-3.63,5.11-5.06,10.74-2.82,16.26,1.3,3.19,4.05,5.44,7.46,5.44,3.41-.3,4.95-2.91,6.5-5.49,2.42-4.02,3.83-8.17,2.23-13.07Z"/>
      </g>
    </g>
  </g>
</svg>